<svg id="Layer_1" data-name="Layer 1" xmlns="http://www.w3.org/2000/svg" viewBox="0 0 400 300" width="406" height="306" class="illustration styles_illustrationTablet__1DWOa"><title>#101_chatting_twocolour</title><ellipse cx="192.28" cy="228.81" rx="154.25" ry="19.34" fill="#e6e6e6" opacity="0.45"></ellipse><path d="M243.73,211.55l26.59-15.89s7.44-3.68,13-.38,1.71,7.29-3,4.64c0,0,.38,7.89-4.19,6.76s-5.58-2.42-5.58-2.42l-20.08,21.07Z" fill="#f4a28c"></path><path d="M243.73,211.55l26.59-15.89s7.44-3.68,13-.38,1.71,7.29-3,4.64c0,0,.38,7.89-4.19,6.76s-5.58-2.42-5.58-2.42l-20.08,21.07Z" opacity="0.08"></path><path d="M254.15,157s8.43,21.84-5.05,23.34-10.47-23.44-3-28.1S254.15,157,254.15,157Z" fill="#24285b"></path><path d="M112.54,197.62l10.7-38c4.3-2.47,4.15-5-1-7.53s-3-6.57-10.11-7.63,3.53,11.76,3.53,11.76h0L93.87,197.62,98.54,211l43.35,9.34,2.1-29Z" fill="#f4a28c"></path><path d="M112.54,197.62l10.7-38c4.3-2.47,4.15-5-1-7.53s-3-6.57-10.11-7.63,3.53,11.76,3.53,11.76h0L93.87,197.62,98.54,211l43.35,9.34,2.1-29Z" opacity="0.08"></path><path d="M260.63,146.46s-2.2,6.06-5,9.47a3.25,3.25,0,0,1-4.57.45c-1.7-1.43-3.58-3.85-2.8-7.24l.63-5.91a5.8,5.8,0,0,1,4.92-4.53C258.23,137.87,262.16,142.84,260.63,146.46Z" fill="#f4a28c"></path><polygon points="248.98 144.21 232.58 157.5 240.55 166.02 249.06 153.26 248.98 144.21" fill="#f4a28c"></polygon><path d="M259.05,150.2l.58,3a1,1,0,0,1-1.27,1.2l-2.43-.62Z" fill="#f4a28c"></path><path d="M248.8,153.64s-.81-1.43-.63-4.8c0,0-3.23,2.92-1.57,8.11Z" fill="#ce8172" opacity="0.31"></path><path d="M252,147.5s1-2.27-.77-2.88-3.23,2.65-1.08,4Z" fill="#f4a28c"></path><path d="M252.53,147s.74-2.77-1.56-3.16-3.44,2.76-1.22,5Z" fill="#f4a28c"></path><path d="M245.1,171h0a47,47,0,0,1,7.59,14.62c3.75,12,8.67,33.27,0,41.88-9.35,9.28-111.31,0-111.31,0l3-41.5s30.34-12.65,49.25-25.22c22.09-14.68,38-9.06,47.76,5.11C242.57,167.66,243.82,169.37,245.1,171Z" fill="#2ccea5"></path><path d="M236.11,191.93s9.56-8.19,17.89-1.81c0,0-3.51-12-7.34-16.91S230.06,172.19,236.11,191.93Z" opacity="0.08"></path><path d="M191.47,162.22l-11.42,6.7s1,.9,2.55,2.53a14.44,14.44,0,0,1,1.64,18.15c-7.19,10.57-16.49,28.44-7.64,40.54,0,0,46.92,2.84,64.6.62L217.39,204l9.86-23.69L214.37,161.6Z" opacity="0.08"></path><path d="M141.37,227.54H102a20.1,20.1,0,0,1-19.63-15.75l-13.5-60.73,10-1.77,15.26,41.65a16.09,16.09,0,0,0,17.1,10.42l32.33-4.07Z" fill="#f4a28c"></path><path d="M261,144.54s-2.07,1.65-6.44,1c-3.52-.49-1.73,3-4.27,5.52-1.1,1.08-.84,4.73-1.16,6-1,4.1,1.77,16.65-5.23,17.42S221,159,212.77,167.07s-28.4,1.69-18.73-12.63,38.39-2.09,46.78-17.49C249.08,121.79,269.56,136.12,261,144.54Z" fill="#24285b"></path><polygon points="144.37 186.04 112.53 197.62 113.87 227.54 141.37 227.54 144.37 186.04" fill="#24285b"></polygon><path d="M68.87,151.06s-16.33-3.76-10-7.26,9,1.17,14.67,0,7.33.82,5.33,5.49Z" fill="#f4a28c"></path><rect x="287.15" y="195.36" width="8.59" height="23.18" transform="translate(129.12 -111.51) rotate(27.61)" fill="#ffd200"></rect><path d="M230.07,162.89a19.72,19.72,0,0,0-21.62,8.93c-9,14.56-24.06,42.67-13.62,53.13,12.61,12.62,79.9,3.84,96.21,1.5a12.06,12.06,0,0,0,7.73-4.31c2.24-2.77,3.74-6.69-.54-10.49-7.8-6.94-12.45,5.59-12.45,5.59l-57.36-3.54a4.18,4.18,0,0,1-3.24-6.48C233.24,194.94,248.59,167.76,230.07,162.89Z" fill="#f4a28c"></path><path d="M194.6,194.2l34.9,8.39s23.1-29.38,2.35-40.37S194.6,194.2,194.6,194.2Z" fill="#2ccea5"></path><path d="M194.6,194.2l34.9,8.39s23.1-29.38,2.35-40.37S194.6,194.2,194.6,194.2Z" fill="#fff" opacity="0.46"></path><path d="M301,186.81s73.23-66.69,22.23-102.19-77.83,33.76-49.33,40.26,40.5-67.92-39-65.42-34.32,68.06-122.32,33.06" fill="none" stroke="#c9c9c9" stroke-linecap="round" stroke-linejoin="round" stroke-width="3" stroke-dasharray="2 12" opacity="0.45"></path><polygon points="104.31 80.68 117.78 72.82 63.38 66.76 88.26 103.56 97.12 84.62 104.31 80.68" fill="#ffd200"></polygon><polygon points="104.31 80.68 100.54 94.42 97.12 84.62 63.38 66.76 104.31 80.68" fill="#ffd200"></polygon><polygon points="104.31 80.68 100.54 94.42 97.12 84.62 63.38 66.76 104.31 80.68" fill="#fff" opacity="0.46"></polygon><polygon points="100.54 94.42 94.53 90.15 97.12 84.62 100.54 94.42" fill="#24285b"></polygon></svg>